PathFileType	4	(X/Y/Z)	/Users/itak/Documents/Research/Walk-IL/dataset/trc/00212_00009.trc
DataRate	CameraRate	NumFrames	NumMarkers	Units	OrigDataRate	OrigDataStartFrame	OrigNumFrames
100.000000	100.000000	4	53	mm	100.000000	470	538
Frame#	Time	RPSI			LPSI			L3			STRN			T10			C7			CLAV			RBAK			LBAK			LSHO			LUPA			LAEL			LAOL			LWTS			LWPS			LFRA			LIFD			LHPS			RSHO			RUPA			RAEL			RAOL			RWTS			RWPS			RFRA			RIFD			RHTS			RHPS			RBHD			LFHD			RFHD			LBHD			LHIP			RHIP			RASI			LASI			LKNE			LTHI			LANK			LTIP			LTOE			LMT1			LMT5			LHEE			RKNE			RTHI			RANK			RTIP			RTOE			RMT1			RMT5			RHEE			LHTS			
		X1	Y1	Z1	X2	Y2	Z2	X3	Y3	Z3	X4	Y4	Z4	X5	Y5	Z5	X6	Y6	Z6	X7	Y7	Z7	X8	Y8	Z8	X9	Y9	Z9	X10	Y10	Z10	X11	Y11	Z11	X12	Y12	Z12	X13	Y13	Z13	X14	Y14	Z14	X15	Y15	Z15	X16	Y16	Z16	X17	Y17	Z17	X18	Y18	Z18	X19	Y19	Z19	X20	Y20	Z20	X21	Y21	Z21	X22	Y22	Z22	X23	Y23	Z23	X24	Y24	Z24	X25	Y25	Z25	X26	Y26	Z26	X27	Y27	Z27	X28	Y28	Z28	X29	Y29	Z29	X30	Y30	Z30	X31	Y31	Z31	X32	Y32	Z32	X33	Y33	Z33	X34	Y34	Z34	X35	Y35	Z35	X36	Y36	Z36	X37	Y37	Z37	X38	Y38	Z38	X39	Y39	Z39	X40	Y40	Z40	X41	Y41	Z41	X42	Y42	Z42	X43	Y43	Z43	X44	Y44	Z44	X45	Y45	Z45	X46	Y46	Z46	X47	Y47	Z47	X48	Y48	Z48	X49	Y49	Z49	X50	Y50	Z50	X51	Y51	Z51	X52	Y52	Z52	X53	Y53	Z53	

471	4.7	817.2367553710938	1037.344482421875	-202.8539886474609	815.0151977539062	1041.337768554688	-323.0959167480469	813.0291137695312	1114.599853515625	-281.966796875	1043.7998046875	1316.91552734375	-291.6846923828125	796.9531860351562	1242.62744140625	-275.3340454101562	841.6106567382812	1507.4228515625	-282.2065124511719	1010.9755859375	1432.1337890625	-288.2415771484375	775.9581909179688	1364.476318359375	-208.2612457275391	815.4869384765625	1467.901489257812	-390.8920593261719	902.2318115234375	1475.9560546875	-450.1181640625	888.9201049804688	1356.305541992188	-526.8343505859375	958.6640014648438	1156.171508789062	-555.8660888671875	889.1478271484375	1120.475830078125	-516.4671020507812	1111.2041015625	965.64599609375	-480.3020629882812	1100.4208984375	938.5979614257812	-558.97412109375	1014.426391601562	1060.663696289062	-563.2437133789062	1194.848388671875	788.343017578125	-480.3623046875	1149.584350585938	864.7904663085938	-550.1052856445312	907.396728515625	1469.712646484375	-115.1487121582031	890.6868896484375	1403.575317382812	-49.19419479370117	872.3560180664062	1124.068359375	-10.66382026672363	837	1118.519287109375	-98.26403045654297	994.7784423828125	902.29638671875	-60.34650039672852	948.7720947265625	892.9321899414062	9.393620491027832	898.008544921875	1055.384033203125	0.7293550968170166	995.750244140625	705.1961059570312	-59.20607376098633	1024.937744140625	777.6571655273438	-45.36266326904297	977.5734252929688	783.0828857421875	9.284130096435547	876.8610229492188	1662.2197265625	-227.3792266845703	1067.0810546875	1722.975463867188	-335.693603515625	1074.013916015625	1720.056030273438	-235.8894653320312	911.1507568359375	1675.27197265625	-362.7752685546875	912.7616577148438	980.7297973632812	-467.0224304199219	921.3026733398438	1001.520935058594	-99.27962493896484	1013.418151855469	1047.671997070312	-139.9868011474609	1014.185913085938	1028.736572265625	-421.5301208496094	968.0213012695312	498.2051391601562	-414.0150756835938	959.5302734375	642.0153198242188	-446.8026733398438	870.7219848632812	28.59907150268555	-394.3457336425781	916.9957885742188	274.2970581054688	-413.7184143066406	1084.392456054688	31.54411506652832	-326.1832275390625	1013.522644042969	29.66249847412109	-286.9952697753906	999.1796875	26.11135292053223	-405.2212219238281	809.1215209960938	37.10013580322266	-345.6885070800781	936.145263671875	510.9527587890625	-136.5095062255859	989.8319702148438	779.4585571289062	-93.56844329833984	830.3626098632812	31.6888484954834	-160.2080383300781	932.9838256835938	392.2969665527344	-155.7831726074219	1043.570922851562	33.73582077026367	-196.6159820556641	987.5225830078125	33.53173065185547	-240.7058868408203	939.7045288085938	28.96006774902344	-129.7067718505859	768.9179077148438	34.21261596679688	-219.9607238769531	1182.135009765625	885.636474609375	-493.7764587402344	
472	4.71	817.7098999023438	1037.343994140625	-203.4423828125	816.1340942382812	1041.244873046875	-323.6039123535156	814.0572509765625	1114.60986328125	-282.5352783203125	1044.901733398438	1316.719848632812	-291.741455078125	797.86865234375	1242.686401367188	-276.0518188476562	842.9065551757812	1507.3837890625	-282.7374877929688	1012.18994140625	1431.980834960938	-288.3652038574219	777.0071411132812	1364.4853515625	-209.0015716552734	817.0044555664062	1467.96240234375	-391.5526123046875	903.9905395507812	1476.030639648438	-450.4620666503906	891.1509399414062	1356.502685546875	-527.3200073242188	961.6853637695312	1156.623046875	-556.125244140625	892.0750122070312	1120.569946289062	-517.2539672851562	1115.13525390625	967.5035400390625	-479.0953979492188	1105.177368164062	940.1632690429688	-557.75732421875	1018.229125976562	1061.50390625	-562.975341796875	1200.275268554688	790.8665161132812	-478.0099182128906	1154.8359375	866.6422729492188	-548.2681274414062	908.239013671875	1469.62255859375	-115.5466461181641	891.2939453125	1403.539672851562	-49.60605621337891	872.5615234375	1124.016357421875	-11.28986167907715	837.599853515625	1118.523193359375	-99.03383636474609	994.5525512695312	901.8532104492188	-60.23451232910156	948.2182006835938	892.7543334960938	9.297658920288086	897.7869873046875	1055.313598632812	0.1201356574892998	994.7440795898438	704.72119140625	-58.76831817626953	1024.17431640625	777.0968017578125	-44.95692825317383	976.6754150390625	782.8260498046875	9.522219657897949	878.3289184570312	1662.203002929688	-227.6226348876953	1068.543701171875	1722.709838867188	-336.050048828125	1075.539306640625	1719.811889648438	-236.2704315185547	912.5411376953125	1675.193115234375	-363.0479736328125	914.2584838867188	980.641845703125	-467.3414916992188	922.0908203125	1001.426086425781	-99.61048889160156	1014.277221679688	1047.578857421875	-140.1312255859375	1015.388793945312	1028.576782226562	-421.6651306152344	968.7352905273438	498.1068725585938	-414.0337829589844	960.5704956054688	641.9249877929688	-446.9257507324219	870.7384033203125	28.60701942443848	-394.3514099121094	917.3798217773438	274.2665405273438	-413.7283020019531	1084.403442382812	31.48409843444824	-326.1002197265625	1013.530334472656	29.63932800292969	-286.9673767089844	999.1976928710938	26.12103462219238	-405.2034912109375	809.1432495117188	37.15364837646484	-345.7315368652344	936.6898193359375	510.9013061523438	-136.6350708007812	990.333740234375	779.3484497070312	-93.786376953125	830.383544921875	31.70500755310059	-160.2100219726562	933.4034423828125	392.2109680175781	-155.9073028564453	1043.575561523438	33.74954223632812	-196.5933227539062	987.5243530273438	33.54008102416992	-240.7056732177734	939.704833984375	28.96253776550293	-129.7055816650391	768.9398803710938	34.23858642578125	-219.9558258056641	1186.791259765625	887.936279296875	-491.7134704589844	
473	4.72	818.1915893554688	1037.315307617188	-204.0171356201172	817.235107421875	1041.119750976562	-324.1035461425781	815.0263061523438	1114.610961914062	-283.0989990234375	1045.981323242188	1316.5009765625	-291.7580871582031	798.747802734375	1242.738159179688	-276.7557373046875	844.1961669921875	1507.345336914062	-283.2458190917969	1013.391845703125	1431.814331054688	-288.4573974609375	778.0393676757812	1364.485717773438	-209.7194519042969	818.5216674804688	1468.009765625	-392.1894226074219	905.7462158203125	1476.076782226562	-450.7865600585938	893.338134765625	1356.6650390625	-527.7771606445312	964.55517578125	1157.011474609375	-556.3709106445312	894.829345703125	1120.649780273438	-518.0244750976562	1118.723510742188	969.1371459960938	-477.9028015136719	1109.572998046875	941.5564575195312	-556.55712890625	1021.7880859375	1062.239990234375	-562.7003784179688	1205.138427734375	793.0986938476562	-475.6983337402344	1159.60888671875	868.2478637695312	-546.448974609375	909.0534057617188	1469.521118164062	-115.9229431152344	891.8717041015625	1403.489379882812	-49.99877548217773	872.768310546875	1123.9462890625	-11.87510013580322	838.2237548828125	1118.490600585938	-99.76329803466797	994.4871826171875	901.4928588867188	-60.09181594848633	947.791748046875	892.5860595703125	9.199030876159668	897.60888671875	1055.224731445312	-0.4438103437423706	994.1010131835938	704.3372192382812	-58.3721923828125	1023.684143066406	776.6513671875	-44.54235458374023	976.013671875	782.6109008789062	9.73606014251709	879.7845458984375	1662.16796875	-227.8292846679688	1069.995239257812	1722.443603515625	-336.3594055175781	1077.0517578125	1719.5625	-236.6034088134766	913.9276733398438	1675.107055664062	-363.2810363769531	915.7567749023438	980.5668334960938	-467.62255859375	922.8223876953125	1001.299499511719	-99.93814086914062	1015.086059570312	1047.4658203125	-140.2490539550781	1016.580078125	1028.414428710938	-421.7742614746094	969.4239501953125	498.0149230957031	-414.0534973144531	961.5819091796875	641.8380126953125	-447.022216796875	870.7561645507812	28.61493492126465	-394.35546875	917.7515869140625	274.2453918457031	-413.7340393066406	1084.416259765625	31.43282890319824	-326.0217895507812	1013.537963867188	29.61362075805664	-286.9401245117188	999.2157592773438	26.12989044189453	-405.1873779296875	809.1658935546875	37.20418930053711	-345.7671813964844	937.3545532226562	510.8197021484375	-136.7743072509766	990.77880859375	779.2066650390625	-94.00110626220703	830.4097900390625	31.7381534576416	-160.2288970947266	933.9364013671875	392.0787353515625	-156.0573425292969	1043.588500976562	33.76420974731445	-196.5768432617188	987.5291137695312	33.53738021850586	-240.7116546630859	939.7066650390625	28.96713447570801	-129.7131805419922	768.9671020507812	34.26709747314453	-219.9579620361328	1190.986328125	889.9107055664062	-489.6527099609375	
474	4.73	818.6897583007812	1037.260131835938	-204.5757446289062	818.3236694335938	1040.966186523438	-324.5920715332031	815.9356079101562	1114.602294921875	-283.6549682617188	1047.041625976562	1316.261474609375	-291.73828125	799.5990600585938	1242.779907226562	-277.4408569335938	845.4805297851562	1507.30908203125	-283.7328186035156	1014.581298828125	1431.634155273438	-288.5191650390625	779.0540161132812	1364.475341796875	-210.416748046875	820.03759765625	1468.043090820312	-392.8017272949219	907.49560546875	1476.091064453125	-451.0915222167969	895.4767456054688	1356.787475585938	-528.2049560546875	967.2755126953125	1157.331176757812	-556.6024169921875	897.40966796875	1120.71240234375	-518.7843627929688	1121.96044921875	970.5264892578125	-476.7220458984375	1113.603393554688	942.7596435546875	-555.3778076171875	1025.101928710938	1062.862548828125	-562.4205322265625	1209.452392578125	795.0297241210938	-473.438232421875	1163.911376953125	869.5989990234375	-544.6549072265625	909.8391723632812	1469.405517578125	-116.2767639160156	892.4193115234375	1403.421630859375	-50.37255477905273	872.9780883789062	1123.855834960938	-12.41543388366699	838.859375	1118.421752929688	-100.4436264038086	994.5762939453125	901.2098388671875	-59.93305587768555	947.5025024414062	892.4236450195312	9.095210075378418	897.4899291992188	1055.115112304688	-0.954846203327179	993.8192749023438	704.0379028320312	-58.03046035766602	1023.466613769531	776.3154907226562	-44.13735961914062	975.59375	782.430419921875	9.915895462036133	881.2266845703125	1662.11474609375	-228.0034790039062	1071.432373046875	1722.178344726562	-336.6236877441406	1078.54638671875	1719.310913085938	-236.8896636962891	915.3096313476562	1675.012084960938	-363.4787292480469	917.2432861328125	980.5001831054688	-467.8743286132812	923.5020751953125	1001.145568847656	-100.2639389038086	1015.854248046875	1047.335205078125	-140.3443756103516	1017.764404296875	1028.25634765625	-421.8638916015625	970.0731811523438	497.9279479980469	-414.0770874023438	962.5518188476562	641.7529907226562	-447.0946960449219	870.7752075195312	28.6222095489502	-394.3574829101562	918.1016845703125	274.2301635742188	-413.7409973144531	1084.429077148438	31.39141654968262	-325.9495239257812	1013.54541015625	29.58664321899414	-286.9137573242188	999.233154296875	26.13753128051758	-405.1726989746094	809.1878051757812	37.24994659423828	-345.7952880859375	938.1307373046875	510.7124328613281	-136.9272613525391	991.172119140625	779.0374755859375	-94.2139892578125	830.4427490234375	31.78868103027344	-160.2638854980469	934.5721435546875	391.9081420898438	-156.2283477783203	1043.609375	33.77889251708984	-196.5661315917969	987.5370483398438	33.52389526367188	-240.7238464355469	939.7099609375	28.97420120239258	-129.72998046875	768.9984741210938	34.29997634887695	-219.9675445556641	1194.724365234375	891.554931640625	-487.606201171875	
